REM DIRINDEX 1\2,1\3,1\4,1\5
REM DIRNAME cjc044,folder01,folder02,folder03,folder04
TITLE ""
FILE "1800_185.mp3" MP3
  TRACK 01 AUDIO
    TITLE "2:cjc044_6498"
    INDEX 01 00:00:00
  TRACK 02 AUDIO
    TITLE "0:"
    INDEX 01 00:01:26
  TRACK 03 AUDIO
    TITLE "3:cjc044_6499"
    INDEX 01 00:01:73
  TRACK 04 AUDIO
    TITLE "0:"
    INDEX 01 00:03:49
  TRACK 05 AUDIO
    TITLE "4:cjc044_6500"
    INDEX 01 00:04:19
  TRACK 06 AUDIO
    TITLE "0:"
    INDEX 01 00:05:57
  TRACK 07 AUDIO
    TITLE "2:cjc044_6501"
    INDEX 01 00:07:31
  TRACK 08 AUDIO
    TITLE "0:"
    INDEX 01 00:08:40
  TRACK 09 AUDIO
    TITLE "3:cjc044_6502"
    INDEX 01 00:09:12
  TRACK 10 AUDIO
    TITLE "0:"
    INDEX 01 00:10:16
  TRACK 11 AUDIO
    TITLE "4:cjc044_6503"
    INDEX 01 00:10:61
  TRACK 12 AUDIO
    TITLE "0:"
    INDEX 01 00:11:74
  TRACK 13 AUDIO
    TITLE "2:cjc044_6504"
    INDEX 01 00:13:45
  TRACK 14 AUDIO
    TITLE "0:"
    INDEX 01 00:14:58
  TRACK 15 AUDIO
    TITLE "3:cjc044_6505"
    INDEX 01 00:15:30
  TRACK 16 AUDIO
    TITLE "0:"
    INDEX 01 00:16:38
  TRACK 17 AUDIO
    TITLE "4:cjc044_6506"
    INDEX 01 00:17:08
  TRACK 18 AUDIO
    TITLE "0:"
    INDEX 01 00:18:25
  TRACK 19 AUDIO
    TITLE "2:cjc044_6507"
    INDEX 01 00:20:00
  TRACK 20 AUDIO
    TITLE "0:"
    INDEX 01 00:21:37
  TRACK 21 AUDIO
    TITLE "3:cjc044_6508"
    INDEX 01 00:22:11
  TRACK 22 AUDIO
    TITLE "0:"
    INDEX 01 00:23:44
  TRACK 23 AUDIO
    TITLE "4:cjc044_6509"
    INDEX 01 00:24:16
  TRACK 24 AUDIO
    TITLE "0:"
    INDEX 01 00:25:52
  TRACK 25 AUDIO
    TITLE "2:cjc044_6510"
    INDEX 01 00:27:30
  TRACK 26 AUDIO
    TITLE "0:"
    INDEX 01 00:28:35
  TRACK 27 AUDIO
    TITLE "3:cjc044_6511"
    INDEX 01 00:29:09
  TRACK 28 AUDIO
    TITLE "0:"
    INDEX 01 00:30:10
  TRACK 29 AUDIO
    TITLE "4:cjc044_6512"
    INDEX 01 00:30:59
  TRACK 30 AUDIO
    TITLE "0:"
    INDEX 01 00:31:67
  TRACK 31 AUDIO
    TITLE "2:cjc044_6513"
    INDEX 01 00:33:42
  TRACK 32 AUDIO
    TITLE "0:"
    INDEX 01 00:34:73
  TRACK 33 AUDIO
    TITLE "3:cjc044_6514"
    INDEX 01 00:35:47
  TRACK 34 AUDIO
    TITLE "0:"
    INDEX 01 00:36:74
  TRACK 35 AUDIO
    TITLE "4:cjc044_6515"
    INDEX 01 00:37:46
  TRACK 36 AUDIO
    TITLE "0:"
    INDEX 01 00:39:03
  TRACK 37 AUDIO
    TITLE "2:cjc044_6516"
    INDEX 01 00:40:52
  TRACK 38 AUDIO
    TITLE "0:"
    INDEX 01 00:41:67
  TRACK 39 AUDIO
    TITLE "3:cjc044_6517"
    INDEX 01 00:42:41
  TRACK 40 AUDIO
    TITLE "0:"
    INDEX 01 00:43:62
  TRACK 41 AUDIO
    TITLE "4:cjc044_6518"
    INDEX 01 00:44:34
  TRACK 42 AUDIO
    TITLE "0:"
    INDEX 01 00:45:49
  TRACK 43 AUDIO
    TITLE "2:cjc044_6519"
    INDEX 01 00:47:25
  TRACK 44 AUDIO
    TITLE "0:"
    INDEX 01 00:48:67
  TRACK 45 AUDIO
    TITLE "3:cjc044_6520"
    INDEX 01 00:49:41
  TRACK 46 AUDIO
    TITLE "0:"
    INDEX 01 00:50:64
  TRACK 47 AUDIO
    TITLE "4:cjc044_6521"
    INDEX 01 00:51:36
  TRACK 48 AUDIO
    TITLE "0:"
    INDEX 01 00:53:08
  TRACK 49 AUDIO
    TITLE "2:cjc044_6522"
    INDEX 01 00:54:56
  TRACK 50 AUDIO
    TITLE "0:"
    INDEX 01 00:56:16
  TRACK 51 AUDIO
    TITLE "3:cjc044_6523"
    INDEX 01 00:56:63
  TRACK 52 AUDIO
    TITLE "0:"
    INDEX 01 00:58:07
  TRACK 53 AUDIO
    TITLE "4:cjc044_6524"
    INDEX 01 00:58:56
  TRACK 54 AUDIO
    TITLE "0:"
    INDEX 01 01:00:15
  TRACK 55 AUDIO
    TITLE "2:cjc044_6525"
    INDEX 01 01:01:64
  TRACK 56 AUDIO
    TITLE "0:"
    INDEX 01 01:03:14
  TRACK 57 AUDIO
    TITLE "3:cjc044_6526"
    INDEX 01 01:03:63
  TRACK 58 AUDIO
    TITLE "0:"
    INDEX 01 01:04:54
  TRACK 59 AUDIO
    TITLE "4:cjc044_6527"
    INDEX 01 01:05:26
  TRACK 60 AUDIO
    TITLE "0:"
    INDEX 01 01:06:45
  TRACK 61 AUDIO
    TITLE "2:cjc044_6528"
    INDEX 01 01:08:23
  TRACK 62 AUDIO
    TITLE "0:"
    INDEX 01 01:09:22
  TRACK 63 AUDIO
    TITLE "3:cjc044_6529"
    INDEX 01 01:09:71
  TRACK 64 AUDIO
    TITLE "0:"
    INDEX 01 01:11:52
  TRACK 65 AUDIO
    TITLE "4:cjc044_6530"
    INDEX 01 01:12:26
  TRACK 66 AUDIO
    TITLE "0:"
    INDEX 01 01:13:26
  TRACK 67 AUDIO
    TITLE "2:cjc044_6531"
    INDEX 01 01:14:74
  TRACK 68 AUDIO
    TITLE "0:"
    INDEX 01 01:16:28
  TRACK 69 AUDIO
    TITLE "3:cjc044_6532"
    INDEX 01 01:16:73
  TRACK 70 AUDIO
    TITLE "0:"
    INDEX 01 01:18:13
  TRACK 71 AUDIO
    TITLE "4:cjc044_6533"
    INDEX 01 01:18:58
  TRACK 72 AUDIO
    TITLE "0:"
    INDEX 01 01:20:10
  TRACK 73 AUDIO
    TITLE "2:cjc044_6534"
    INDEX 01 01:21:57
  TRACK 74 AUDIO
    TITLE "0:"
    INDEX 01 01:23:15
  TRACK 75 AUDIO
    TITLE "3:cjc044_6535"
    INDEX 01 01:23:60
  TRACK 76 AUDIO
    TITLE "0:"
    INDEX 01 01:24:73
  TRACK 77 AUDIO
    TITLE "4:cjc044_6536"
    INDEX 01 01:25:47
  TRACK 78 AUDIO
    TITLE "0:"
    INDEX 01 01:27:03
  TRACK 79 AUDIO
    TITLE "2:cjc044_6537"
    INDEX 01 01:28:49
  TRACK 80 AUDIO
    TITLE "0:"
    INDEX 01 01:29:58
  TRACK 81 AUDIO
    TITLE "3:cjc044_6538"
    INDEX 01 01:30:30
  TRACK 82 AUDIO
    TITLE "0:"
    INDEX 01 01:31:39
  TRACK 83 AUDIO
    TITLE "4:cjc044_6539"
    INDEX 01 01:32:12
  TRACK 84 AUDIO
    TITLE "0:"
    INDEX 01 01:33:23
  TRACK 85 AUDIO
    TITLE "2:cjc044_6540"
    INDEX 01 01:34:69
  TRACK 86 AUDIO
    TITLE "0:"
    INDEX 01 01:36:17
  TRACK 87 AUDIO
    TITLE "3:cjc044_6541"
    INDEX 01 01:36:64
  TRACK 88 AUDIO
    TITLE "0:"
    INDEX 01 01:38:00
  TRACK 89 AUDIO
    TITLE "4:cjc044_6542"
    INDEX 01 01:38:49
  TRACK 90 AUDIO
    TITLE "0:"
    INDEX 01 01:39:70
  TRACK 91 AUDIO
    TITLE "2:cjc044_6543"
    INDEX 01 01:41:46
  TRACK 92 AUDIO
    TITLE "0:"
    INDEX 01 01:43:13
  TRACK 93 AUDIO
    TITLE "3:cjc044_6544"
    INDEX 01 01:43:58
  TRACK 94 AUDIO
    TITLE "0:"
    INDEX 01 01:45:73
  TRACK 95 AUDIO
    TITLE "4:cjc044_6545"
    INDEX 01 01:46:43
  TRACK 96 AUDIO
    TITLE "0:"
    INDEX 01 01:48:14
  TRACK 97 AUDIO
    TITLE "2:cjc044_6546"
    INDEX 01 01:49:63
  TRACK 98 AUDIO
    TITLE "0:"
    INDEX 01 01:51:13
  TRACK 99 AUDIO
    TITLE "3:cjc044_6547"
    INDEX 01 01:51:56
  TRACK 100 AUDIO
    TITLE "0:"
    INDEX 01 01:53:23
  TRACK 101 AUDIO
    TITLE "4:cjc044_6548"
    INDEX 01 01:53:69
  TRACK 102 AUDIO
    TITLE "0:"
    INDEX 01 01:55:18
  TRACK 103 AUDIO
    TITLE "2:cjc044_6549"
    INDEX 01 01:56:65
  TRACK 104 AUDIO
    TITLE "0:"
    INDEX 01 01:58:25
  TRACK 105 AUDIO
    TITLE "3:cjc044_6550"
    INDEX 01 01:58:70
  TRACK 106 AUDIO
    TITLE "0:"
    INDEX 01 02:00:20
  TRACK 107 AUDIO
    TITLE "4:cjc044_6551"
    INDEX 01 02:00:65
  TRACK 108 AUDIO
    TITLE "0:"
    INDEX 01 02:02:28
